
<svg id="Layer_1" data-name="Layer 1" xmlns="http://www.w3.org/2000/svg" viewBox="0 0 170.43 65.78">
  <defs>
    <style>
      .cls-1 {
        fill: red;
      }
    </style>
  </defs>
  <g>
    <path class="cls-1" d="M124.58.73l.06.48c-9.45,9.18-39.8,47.04-39.8,59.46,0,2.76,1.37,4.44,4.66,4.44,11.63,0,25.25-16.32,25.25-24,0-2.22-1.18-3.9-4.04-3.9-6.78,0-15.73,11.1-17.6,19.02l-.31-.06c1.74-8.34,9.7-19.32,17.91-19.32,2.92,0,4.35,1.8,4.35,4.26,0,7.92-13.62,24.3-25.56,24.3-4.04,0-6.03-2.4-6.03-5.94,0-4.5,2.05-10.2,6.16-16.92,7.71-12.6,23.51-31.02,34.58-41.46-7.9,0-20.77,15.36-37.88,37.68-10.64,13.86-20.4,25.86-24.57,25.86-.62,0-.87-.42-.87-1.2,0-9.06,20.83-36.3,44.34-62.88-7.59.78-20.71,17.76-30.72,30.06-14.37,17.64-29.29,34.92-50.75,34.92C7.65,65.53.25,56.05.25,46.57c0-11.58,10.01-23.22,27.99-23.22,11.82,0,17.73,6.18,17.73,13.38,0,8.16-7.4,16.98-19.16,16.98-7.59,0-11.01-4.2-11.01-8.52s3.67-9.06,10.08-9.06c1.62,0,3.11.42,4.1.9l-.12.24c-1.12-.54-2.49-.84-3.92-.84-5.72,0-9.39,4.68-9.39,9.12,0,4.02,3.05,7.86,10.26,7.86,11.51,0,18.84-8.7,18.84-16.68,0-6.66-5.22-12.96-17.41-12.96C12.07,23.77,1.87,36.43,1.87,47.71c0,9.18,6.97,17.52,21.89,17.52,21.08,0,36.26-17.22,50.56-34.86C84.83,17.41,98.02.37,105.61.25l.06.36c-14.24,17.76-44.03,58.62-44.03,63.24,0,.3.19.42.31.42,3.48,0,12.87-11.1,24.13-25.68C104.49,14.71,116.06.73,124.58.73Z"/>
    <path class="cls-1" d="M23.76,65.78C7.35,65.78,0,56.13,0,46.57c0-5.98,2.67-11.86,7.33-16.14,5.23-4.8,12.46-7.33,20.9-7.33,13.27,0,17.98,7.34,17.98,13.63,0,8.29-7.42,17.23-19.41,17.23-7.78,0-11.26-4.4-11.26-8.77s3.62-9.31,10.33-9.31c2.07,0,3.64.65,4.21.93l.23.11-.35.68-.22-.11c-1.11-.53-2.42-.81-3.81-.81-5.65,0-9.14,4.6-9.14,8.87,0,3.68,2.63,7.61,10.01,7.61,8.98,0,18.59-6.6,18.59-16.43s-9.25-12.71-17.16-12.71c-12.61,0-26.12,9.52-26.12,23.69,0,7.97,5.67,17.27,21.64,17.27,20.48,0,35.51-16.45,50.37-34.77.75-.93,1.52-1.87,2.29-2.83C86.74,14.6,98.44.12,105.6,0h.21s.12.68.12.68l-.07.09c-14.48,18.06-43.98,58.65-43.98,63.08,0,.13.05.17.07.17,3.7,0,14.73-13.67,23.93-25.58C104.09,14.82,115.78.48,124.58.48h.22l.11.82-.09.09c-9.6,9.32-39.73,47.17-39.73,59.28,0,2.82,1.44,4.19,4.41,4.19,11.25,0,25-15.9,25-23.75,0-2.35-1.35-3.65-3.79-3.65-6.53,0-15.46,10.78-17.36,18.83l-.05.23-.8-.15.05-.25c1.66-7.96,9.56-19.52,18.16-19.52,2.84,0,4.6,1.73,4.6,4.51,0,8.32-13.93,24.55-25.81,24.55-3.93,0-6.28-2.31-6.28-6.19,0-4.59,2.08-10.32,6.19-17.05,7.91-12.92,23.43-30.85,34.13-41.04-7.47.78-19.31,14.44-37.01,37.55-11.96,15.58-20.74,25.96-24.77,25.96-.74,0-1.12-.49-1.12-1.45,0-7.99,16.42-31.34,43.94-62.52-6.94,1.52-18.22,15.47-27.35,26.74-.86,1.06-1.7,2.11-2.53,3.12-12.7,15.6-28.52,35.01-50.94,35.01ZM103.83,2.52c-26.77,30.44-42.69,53.14-42.69,60.91,0,.68.2.88.44.93-.12-.12-.2-.29-.2-.51,0-4.67,28.54-43.72,42.45-61.33ZM122.05,3.52c-10.55,10.38-24.76,27-32.21,39.16-4.06,6.65-6.12,12.3-6.12,16.79,0,2.1.71,3.67,2.02,4.63-.77-.78-1.15-1.93-1.15-3.43,0-6.89,8.92-20.71,16.4-31.09,7.38-10.24,15.8-20.43,21.06-26.06ZM22.52,24.08C11.03,26.02.5,33.76.5,46.57c0,5.48,2.49,11,7.82,14.6-4.78-3.54-6.71-8.73-6.71-13.46,0-10.22,8.19-21.08,20.9-23.63ZM107.91,37.51c-5.62,1.64-10.63,7.88-13.25,13.83,2.93-5.96,8.36-12,13.25-13.83ZM21.41,37.26c-3.51,1.52-5.36,4.8-5.36,7.93,0,1.64.45,3.03,1.21,4.16-.61-1.04-.97-2.3-.97-3.8,0-3.22,1.88-6.61,5.11-8.29Z"/>
  </g>
  <g>
    <path class="cls-1" d="M116.74,58.51c0-1.86,1.49-4.32,2.99-6.6l1.99-3.12c-3.48,4.44-8.27,8.94-11.13,11.22l-.19-.24c2.86-2.22,7.65-6.78,11.07-11.16l2.36-3,3.79-5.76c.75,0,1.99-.06,2.43-.12l-8.89,13.5c-1.55,2.34-3.55,4.98-3.55,5.94,0,.6.37.84.93.84,3.79,0,9.2-5.4,14.55-11.88.12-.18.37,0,.25.18-4.91,6-10.7,12-14.86,12-1.24,0-1.74-.78-1.74-1.8ZM135.4,30.25c0,1.02-1,2.4-2.36,2.4-.81,0-1.12-.48-1.12-1.08,0-1.02,1-2.4,2.3-2.4.87,0,1.18.48,1.18,1.08Z"/>
    <path class="cls-1" d="M118.49,60.56c-1.27,0-1.99-.75-1.99-2.05,0-1.93,1.53-4.44,2.98-6.66-2.99,3.34-6.39,6.5-8.73,8.36l-.2.16-.49-.64.2-.15c2.96-2.29,7.7-6.85,11.03-11.12l2.36-3,3.85-5.85h.13c.75,0,1.98-.06,2.39-.12l.55-.08-9.2,13.96c-.34.51-.69,1.02-1.04,1.54-1.15,1.68-2.46,3.59-2.46,4.27,0,.29.08.59.68.59,3.12,0,7.81-3.86,14.36-11.79.12-.18.36-.22.55-.09.19.13.23.38.1.57-6.68,8.15-11.6,12.11-15.07,12.11ZM121.68,48.75l.25.18-1.99,3.12c-1.43,2.18-2.95,4.65-2.95,6.47,0,.46.11.98.53,1.29-.11-.17-.16-.38-.16-.63,0-.83,1.18-2.55,2.55-4.55.35-.51.7-1.03,1.04-1.53l8.61-13.06c-.52.04-1.25.07-1.79.07l-3.72,5.65-2.36,3ZM133.31,48.27s0,0,0,0c0,0,0,0,0,0ZM133.04,32.9c-.86,0-1.37-.5-1.37-1.33,0-1.2,1.14-2.65,2.55-2.65.91,0,1.43.48,1.43,1.33,0,1.23-1.14,2.65-2.61,2.65ZM134.22,29.42c-1.19,0-2.05,1.28-2.05,2.15,0,.55.29.83.87.83,1.23,0,2.11-1.28,2.11-2.15,0-.56-.3-.83-.93-.83Z"/>
  </g>
  <g>
    <path class="cls-1" d="M138.33,41.29l.93-1.38,16.05-24.42c.56,0,1.87-.06,2.36-.12l-24.88,37.86c-1.49,2.28-3.54,4.92-3.54,5.94,0,.54.37.84.87.84,3.92,0,9.27-5.4,14.62-11.88.12-.18.37,0,.25.18-4.91,6-10.64,12-14.93,12-1.18,0-1.68-.78-1.68-1.8,0-1.8,1.49-4.32,2.99-6.6l3.86-5.94-2.36,2.94c-.12.12-.44.06-.25-.18,1.87-2.34,3.92-4.86,5.72-7.44Z"/>
    <path class="cls-1" d="M130.05,60.56c-1.21,0-1.93-.77-1.93-2.05,0-1.86,1.45-4.34,3.03-6.74l1.67-2.58c-.15.04-.31.02-.41-.08-.12-.1-.19-.31,0-.54l.71-.89c1.69-2.11,3.43-4.29,5-6.54l.93-1.38,16.12-24.53h.13c.56,0,1.86-.06,2.33-.12l.53-.06-25.17,38.31c-.37.57-.78,1.16-1.18,1.75-1.14,1.66-2.32,3.37-2.32,4.06,0,.37.23.59.62.59,4.21,0,10.25-6.73,14.42-11.79.12-.18.36-.22.55-.09.19.13.23.38.1.57-4.26,5.21-10.45,12.11-15.13,12.11ZM135.17,45.92l.26.19-3.86,5.94c-1.46,2.23-2.94,4.73-2.94,6.46,0,.49.12,1.04.58,1.34-.14-.18-.21-.41-.21-.68,0-.84,1.12-2.46,2.41-4.34.4-.58.81-1.17,1.18-1.74l24.59-37.43c-.55.04-1.28.07-1.74.07l-16.91,25.69c-1.07,1.53-2.21,3.02-3.37,4.48ZM144.94,48.27s0,0,0,0c0,0,0,0,0,0Z"/>
  </g>
  <g>
    <path class="cls-1" d="M166.94,48.13c.12-.18.37,0,.25.18-4.91,6-10.7,12-14.8,12-1.18,0-2.05-.6-2.05-1.92s.37-2.4,1.49-4.2c1.24-2.04,2.92-3.66,2.92-4.38,0-.48-.75-.78-1.87-.78-.31.06-.68.06-.93.06v-.24c4.23,0,9.33-5.04,9.33-8.16,0-.48-.12-1.02-.93-1.02-4.54,0-11.26,8.22-15.05,13.08l-4.6,7.02c-.62,0-1.68.06-2.3.12l11.63-17.7c-1.99,2.52-4.23,5.16-5.47,6.66-.12.18-.56.18-.31-.12,3.42-4.08,6.09-7.32,8.89-11.28l14.49-21.96c.56,0,1.8-.06,2.3-.12l-23.01,34.92c4.1-5.1,9.39-10.98,13.56-10.98,1.37,0,2.36.72,2.36,2.16,0,3.72-4.98,6.6-8.89,7.38,1.43.24,1.62,1.32,1.62,1.68,0,1.32-.44,2.4-2.05,4.86-.93,1.38-2.18,3-2.18,3.9,0,.36.37.72,1.06.72,3.79,0,9.2-5.4,14.55-11.88Z"/>
    <path class="cls-1" d="M152.38,60.56c-1.44,0-2.3-.81-2.3-2.17s.43-2.56,1.53-4.33c.55-.9,1.17-1.7,1.71-2.41.6-.78,1.17-1.52,1.17-1.84,0-.26-.57-.53-1.62-.53-.29.06-.68.06-.93.06h-.25v-.74h.25c4.01,0,9.08-4.9,9.08-7.91,0-.56-.19-.77-.68-.77-4.23,0-10.5,7.41-14.85,12.98l-4.66,7.12h-.14c-.63,0-1.68.06-2.28.12l-.52.05,9.21-14.01c-.5.6-.97,1.17-1.39,1.67l-.97,1.17c-.11.16-.34.23-.51.21-.14-.02-.25-.1-.3-.21-.04-.09-.05-.25.11-.44,3.43-4.09,6.08-7.3,8.88-11.26l14.56-22.06h.13c.54,0,1.78-.06,2.27-.12l.54-.06-20.9,31.72c3.57-4.06,7.57-7.71,10.94-7.71,1.61,0,2.61.92,2.61,2.41,0,3.72-4.57,6.45-8.24,7.43.93.53.97,1.5.97,1.63,0,1.41-.47,2.53-2.09,5-.15.23-.31.46-.48.69-.78,1.12-1.66,2.39-1.66,3.07,0,.23.28.47.81.47,3.11,0,7.81-3.85,14.36-11.78.13-.18.37-.23.56-.1.19.13.23.38.1.57-6.68,8.15-11.58,12.11-15.01,12.11ZM154.98,49.65c.01.05.02.11.02.16,0,.49-.54,1.19-1.28,2.15-.54.7-1.15,1.49-1.68,2.36-1.06,1.71-1.46,2.81-1.46,4.07,0,.73.29,1.15.66,1.39-.11-.15-.16-.32-.16-.49,0-.83.89-2.11,1.75-3.35.16-.23.32-.46.47-.69,1.56-2.37,2.01-3.43,2.01-4.72,0-.12-.02-.53-.33-.88ZM149.95,42.13l.27.2-11.35,17.27c.54-.04,1.2-.07,1.68-.08l4.53-6.91c.58-.74,1.19-1.52,1.83-2.3l-.22-.16,22.73-34.49c-.53.04-1.23.07-1.67.07l-14.42,21.85c-1.13,1.6-2.24,3.08-3.38,4.54ZM161.07,39.62c.26.18.45.5.45,1.08,0,2.44-2.95,5.96-6.27,7.56,3.34-1.04,7.32-3.55,7.32-6.78,0-1.02-.54-1.67-1.51-1.86Z"/>
  </g>
</svg>

