<?xml version="1.0" encoding="UTF-8"?>
<svg id="Layer_1" data-name="Layer 1" xmlns="http://www.w3.org/2000/svg" viewBox="0 0 208.95 66.16">
  <defs>
    <style>
      .cls-1 {
        fill: red;
      }
    </style>
  </defs>
  <g>
    <path class="cls-1" d="M54.59,36.38h18.23l.94-.96C91.63,16.7,104.33.5,115.33.5l.13.3c-12.83,13.44-25.15,31.08-32,42.42-3.58,5.88-6.85,12.12-6.85,16.8,0,3.12,1.89,5.34,6.41,5.34,13.08,0,23.83-14.46,23.83-22.38,0-2.94-1.13-5.1-5.28-5.1-5.72,0-13.27,7.92-14.96,17.04l-.31-.06c.82-5.34,2.95-9.66,5.78-12.72,2.89-3.06,6.79-4.62,9.43-4.62,4.34,0,5.66,2.28,5.66,5.46,0,8.1-10.94,22.68-24.21,22.68-5.53,0-7.42-3.12-7.42-7.02,0-6.48,3.84-13.86,6.48-18.06.75-1.26,1.57-2.58,2.45-3.9h-11.51c-14.71,15.3-30.49,28.98-48.35,28.98C7.88,65.66.52,56.24.52,46.04c0-12.12,10.75-25.14,29.49-25.14,11.19,0,16.1,5.88,16.1,12.66,0,8.7-7.8,18.66-19.18,18.66-6.92,0-10.19-4.02-10.19-8.22,0-4.5,3.77-9.18,10.81-9.18.19,0,.69,0,1.19.06l-.06.3h-.94c-6.29,0-10.5,5.04-10.5,9.18,0,3.84,3.02,7.56,9.68,7.56,11.07,0,18.86-9.84,18.86-18.42,0-6.48-4.65-12.24-15.78-12.24-16.41,0-27.92,14.16-27.92,26.4,0,9.3,6.66,17.7,22.51,17.7,17.35,0,33.26-13.38,47.91-28.68h-18.17l.25-.3ZM73.27,36.38h11.44c7.48-11.16,17.86-23.34,30.3-35.58-10.88,0-26.09,19.32-41.06,34.86l-.69.72Z"/>
    <path class="cls-1" d="M82.95,66.16c-5.12,0-7.94-2.67-7.94-7.52,0-7.13,4.58-15.18,6.55-18.32.69-1.15,1.33-2.19,1.95-3.14h-10.33c-14.51,15.07-30.44,28.98-48.58,28.98-11.35,0-24.6-5.27-24.6-20.12,0-12.6,11.23-25.64,30.01-25.64,12.25,0,16.62,6.8,16.62,13.16,0,9.06-8.09,19.16-19.7,19.16-7.4,0-10.71-4.38-10.71-8.72,0-4.69,3.97-9.68,11.34-9.68.2,0,.72,0,1.26.06l.56.07-.26,1.23h-1.37c-6.18,0-9.98,5.06-9.98,8.68,0,3.26,2.4,7.06,9.16,7.06,10.5,0,18.34-9.46,18.34-17.92,0-2.75-1.1-11.74-15.26-11.74-12.93,0-27.39,11.08-27.39,25.9,0,12.68,11.36,17.2,21.98,17.2,17.46,0,33.38-13.85,46.72-27.68h-18.07l1.09-1.3h18.26l.79-.8c3.11-3.26,6.05-6.42,8.88-9.49C95.54,11.29,106.01,0,115.33,0h.35l.13.3h.44l-.31.31.12.3-.22.23c-12.78,13.4-25.19,31.18-31.94,42.33-3.16,5.18-6.78,11.75-6.78,16.55,0,3.17,2.04,4.84,5.89,4.84,13.23,0,23.31-14.58,23.31-21.88,0-3.22-1.42-4.6-4.76-4.6-5.14,0-12.73,7.42-14.45,16.63l-.09.5-1.33-.25.07-.47c.79-5.16,2.83-9.65,5.91-12.98,3.13-3.31,7.19-4.79,9.82-4.79,4.1,0,6.18,2,6.18,5.96,0,8.73-11.56,23.18-24.73,23.18ZM84.95,36.88l-.05.07c-.76,1.15-1.56,2.41-2.44,3.88-1.93,3.07-6.41,10.93-6.41,17.81,0,.3.01.59.03.87.24-4.98,3.8-11.43,6.91-16.54,5.03-8.33,13.22-20.34,22.37-31.49-8.02,8.68-14.89,17.23-20.21,25.17l-.21.23ZM17.56,23.65C7.04,27.8,1.05,37.03,1.05,46.04c0,3.07.6,5.7,1.65,7.95-.77-2.05-1.12-4.21-1.12-6.33,0-6.23,2.97-13.01,7.94-18.13,2.38-2.45,5.1-4.43,8.04-5.88ZM74.46,35.88h9.96c7.26-10.78,17.35-22.68,29.26-34.48-8.37,1.17-19.21,12.92-30.65,25.31-2.81,3.04-5.71,6.19-8.58,9.17Z"/>
  </g>
  <g>
    <path class="cls-1" d="M126.46,48.26c.13-.18.38,0,.25.18-4.97,6-10.75,12-15.09,12-1.19,0-1.7-.78-1.7-1.8,0-1.8,1.51-4.32,3.02-6.6l4.09-6.12-2.39,3c-3.52,4.44-8.36,8.94-11.25,11.22l-.19-.24c2.89-2.22,7.73-6.78,11.19-11.16,1.51-1.86,2.95-3.66,4.34-5.46l18.42-27.66c.57,0,1.89-.06,2.39-.12l-25.15,37.86c-1.51,2.28-3.58,4.92-3.58,5.94,0,.54.38.84.88.84,3.96,0,9.37-5.4,14.78-11.88Z"/>
    <path class="cls-1" d="M111.62,60.94c-1.37,0-2.22-.88-2.22-2.3,0-1.54.95-3.45,2.16-5.4-2.77,2.93-5.73,5.62-7.84,7.29l-.42.33-.82-1.05.39-.3c2.98-2.29,7.75-6.82,11.1-11.07,1.4-1.73,2.9-3.59,4.33-5.45l18.56-27.86h.29c.56,0,1.85-.06,2.33-.12l1.1-.13-25.74,38.75c-.38.57-.79,1.17-1.2,1.75-1.03,1.47-2.3,3.3-2.3,3.92,0,.16.04.34.36.34,4.13,0,10.17-6.66,14.36-11.68.14-.19.36-.29.59-.27.24.01.46.15.57.36.11.21.09.46-.05.67-6.91,8.35-11.83,12.22-15.53,12.22ZM117.23,46.03l.24.16-4.09,6.12c-1.43,2.15-2.88,4.57-2.93,6.24.34-.86,1.15-2.06,2.31-3.72.4-.58.81-1.17,1.19-1.73l24.59-37.02c-.38.02-.78.04-1.1.04l-18.27,27.43c-.64.84-1.29,1.67-1.94,2.48Z"/>
  </g>
  <g>
    <path class="cls-1" d="M139.73,39.44c1.01,0,1.38.48,1.38,1.02,0,2.7-7.1,8.1-13.77,10.26-2.07,3.06-3.58,6.06-3.58,7.74,0,.9.63,1.68,2.2,1.68,5.03,0,10.88-4.92,16.6-11.88.13-.18.44,0,.19.24-4.84,5.94-11.19,11.94-16.72,11.94-2.77,0-3.27-1.74-3.27-2.88,0-10.32,13.83-18.12,16.98-18.12ZM127.66,50.3c6.92-2.34,13.14-7.62,13.14-9.84,0-.3-.19-.72-.94-.72-3.14,0-8.55,5.4-12.2,10.56Z"/>
    <path class="cls-1" d="M126.02,60.94c-3.52,0-3.79-2.59-3.79-3.38,0-10.48,13.96-18.62,17.5-18.62,1.41,0,1.91.82,1.91,1.52,0,2.97-7.14,8.42-13.95,10.68-2.13,3.17-3.4,5.9-3.4,7.32,0,.98.91,1.18,1.68,1.18,4.36,0,9.81-3.93,16.19-11.69.12-.18.38-.29.63-.26.26.03.47.19.55.43.09.25,0,.52-.21.74-4.47,5.49-11.1,12.09-17.09,12.09ZM133.63,42.67c-4.75,3.06-10.35,8.45-10.35,14.88,0,.09,0,.18.01.27.31-2.02,1.96-4.84,3.07-6.56h-.03s.27-.37.27-.37c.11-.17.21-.32.3-.45l.32-.43c1.84-2.6,4.14-5.3,6.41-7.34ZM139.85,40.24c-2.64,0-7.29,4.42-10.77,8.99,6.12-2.5,11.19-7.02,11.19-8.77,0-.07,0-.22-.42-.22ZM142.99,48.53s-.02.03-.03.04c.01-.01.02-.03.03-.04Z"/>
  </g>
  <g>
    <path class="cls-1" d="M137.72,60.38c-2.51-.24-3.9-1.8-3.9-3.84,0-1.8,1.13-2.52,1.95-2.52.44,0,.75.18.75.6,0,.66-1.32,1.86-2.26,2.64.13,1.44,1.51,2.82,3.9,2.82,4.65,0,12.51-10.2,12.51-17.22,0-1.2-.19-2.22-.69-3.18-1.38,1.8-4.78,5.88-7.61,9.3-.19.24-.5.12-.31-.12,1.89-2.22,5.85-7.08,7.73-9.42-.31-.72-.31-1.2-.31-1.74,0-.9.63-1.98,1.63-1.98.82,0,.88.48.88.78,0,.72-.82,1.86-1.82,2.94.88,1.8,1.26,3.84,1.26,5.88,0,6.42-3.96,13.2-10.56,14.76,2.07-.18,5.53-1.44,8.61-3.36v-.54c0-1.26.75-2.34,1.76-2.34.5,0,.75.36.75.6,0,.3-.06.42-.13.6l.19-.18c4.28-3.54,8.99-9.48,13.77-16.14-.25-.66-.69-1.86-.69-2.58,0-.84.38-1.68,1.38-1.68.69,0,1.07.48,1.07,1.26,0,1.02-1.07,2.64-1.38,3.06,1.07,2.22,1.57,4.44,1.57,6.6,0,6.6-4.21,13.08-10.12,14.64,4.65-.48,8.8-3.66,12.2-7.2,1.38-1.44,2.7-3,4.02-4.56.13-.18.38,0,.25.18-1.19,1.38-2.58,3-4.09,4.62-3.46,3.6-8.17,7.32-13.45,7.32-.31,0-1.45.06-1.76.06-3.4,0-4.9-1.8-5.28-3.42-3.27,2.04-6.98,3.42-10,3.42-.44,0-1.26,0-1.82-.06ZM149.79,56.84c.38,1.62,1.76,3.24,4.97,3.24,4.21,0,12.13-9.48,12.13-17.1,0-1.38-.25-2.58-.88-3.96-5.03,7.02-9.43,12.54-13.77,16.08-.75.6-1.57,1.2-2.45,1.74ZM166.01,38.48c.63-.84,1.26-1.98,1.26-2.76,0-.6-.31-.96-.88-.96-.63,0-.94.66-.94,1.38,0,.66.38,1.8.57,2.34Z"/>
    <path class="cls-1" d="M154.82,60.94c-3.18,0-4.92-1.52-5.58-3.15-3.39,2-6.89,3.15-9.7,3.15-.45,0-1.28,0-1.88-.06-2.65-.25-4.37-1.96-4.37-4.34,0-1.96,1.27-3.02,2.47-3.02.78,0,1.28.43,1.28,1.1,0,.45-.26,1.17-2.23,2.84.22,1.06,1.32,2.12,3.34,2.12,4.23,0,11.99-9.83,11.99-16.72,0-.84-.1-1.54-.3-2.17-1.35,1.71-3.64,4.47-5.87,7.16l-1.19,1.44c-.26.34-.73.43-1.05.19-.25-.18-.37-.57-.09-.92,1.88-2.21,5.73-6.94,7.56-9.2-.24-.67-.24-1.17-.24-1.66,0-1.2.87-2.48,2.16-2.48.89,0,1.4.47,1.4,1.28,0,.73-.58,1.75-1.73,3.03.77,1.7,1.17,3.65,1.17,5.79,0,4.45-1.88,9.38-5.53,12.49.86-.41,1.72-.87,2.53-1.36v-.27c0-1.59,1-2.84,2.28-2.84.53,0,.92.26,1.13.59,3.49-3.06,7.61-7.95,12.88-15.28-.31-.84-.63-1.82-.63-2.51,0-1.32.75-2.18,1.91-2.18.97,0,1.59.69,1.59,1.76s-.92,2.54-1.31,3.11c.99,2.15,1.5,4.35,1.5,6.55,0,4.94-2.23,9.62-5.62,12.51,2.2-1.18,4.45-2.97,6.79-5.41,1.37-1.42,2.7-3,3.99-4.52.12-.18.35-.29.59-.27.24.01.46.15.57.36.11.21.09.46-.05.67l-.52.6c-1.08,1.25-2.3,2.66-3.62,4.07-4.77,4.97-9.43,7.49-13.85,7.49-.15,0-.51.02-.86.03-.37.02-.74.03-.9.03ZM140.77,59.82s-.08.04-.12.06c.04,0,.08,0,.12-.01v-.05ZM157.54,59.68c-.11.06-.21.12-.32.18.12,0,.23-.02.35-.03l-.03-.15ZM150.39,57.06c.35,1.07,1.38,2.52,4.36,2.52,3.84,0,11.61-9.13,11.61-16.6,0-1.04-.15-1.95-.49-2.9-4.03,5.59-8.7,11.64-13.3,15.4-.67.53-1.3.99-1.9,1.39h-.02s0,0,0,0c-.09.06-.18.12-.27.18ZM167.24,45c-.91,5.58-5.3,11.83-9.23,14.39,5.3-1.69,9.23-7.61,9.23-14.01,0-.12,0-.25,0-.38ZM150.9,45.37c-1.14,5.22-5.41,11.44-9.39,14.01,6.08-1.9,9.37-8.5,9.39-14.01ZM135.77,54.52c-.57,0-1.42.53-1.43,2,1.64-1.42,1.66-1.88,1.66-1.9-.02-.07-.08-.1-.23-.1ZM151.24,54.34c-.65,0-1.21.8-1.24,1.77.4-.26.82-.56,1.25-.88l.12-.35c.08-.21.1-.27.1-.44h0s-.05-.1-.23-.1ZM141.95,48.67s0,0,0,0h0ZM174.31,48.53l-.04.04s.03-.03.04-.04ZM151.11,36.22c-.69,0-1.11.86-1.11,1.48,0,.37,0,.68.1,1.05,1-1.14,1.37-1.9,1.37-2.25,0-.22,0-.28-.36-.28ZM166.39,35.26c-.27,0-.42.45-.42.88,0,.16.03.5.21,1.14.35-.62.56-1.19.56-1.56,0-.46-.22-.46-.36-.46Z"/>
  </g>
  <g>
    <path class="cls-1" d="M169.09,58.64c0-1.86,1.51-4.32,3.02-6.6l3.84-5.82c-.88,1.14-1.76,2.16-2.33,2.82-.13.12-.44.06-.25-.18,1.89-2.28,3.9-4.8,5.72-7.32l1.01-1.56c.75,0,2.01-.06,2.45-.12l-8.99,13.5c-1.57,2.34-3.58,4.98-3.58,5.94,0,.6.38.84.94.84,3.84,0,9.3-5.4,14.71-11.88.13-.18.38,0,.25.18-4.97,6-10.81,12-15.03,12-1.26,0-1.76-.78-1.76-1.8ZM187.95,30.38c0,1.02-1.01,2.4-2.39,2.4-.82,0-1.13-.48-1.13-1.08,0-1.02,1.01-2.4,2.33-2.4.88,0,1.19.48,1.19,1.08Z"/>
    <path class="cls-1" d="M170.85,60.94c-1.43,0-2.28-.86-2.28-2.3,0-2.02,1.6-4.6,3.1-6.87l1.48-2.24c-.05-.02-.1-.05-.14-.09-.22-.18-.33-.53-.05-.88,2.28-2.76,4.15-5.15,5.71-7.3l1.14-1.78h.29c.75,0,1.97-.06,2.38-.12l1.13-.15-9.6,14.42c-.34.51-.7,1.03-1.06,1.54-1.09,1.57-2.44,3.53-2.44,4.13,0,.21.02.34.42.34,3.06,0,7.74-3.82,14.3-11.69.19-.27.6-.35.91-.15.32.21.4.61.18.92-6.91,8.35-11.81,12.22-15.46,12.22ZM176.11,46.3l.28.18-3.84,5.82c-1.4,2.12-2.9,4.52-2.94,6.26.35-.89,1.22-2.17,2.45-3.95.35-.51.71-1.03,1.05-1.53l8.43-12.65c-.39.02-.8.03-1.15.04l-.85,1.32c-1.01,1.4-2.15,2.89-3.43,4.5ZM186.06,48.54s-.02.02-.03.04c.01-.01.02-.02.03-.04ZM185.56,33.28c-1.02,0-1.66-.61-1.66-1.58,0-1.31,1.27-2.9,2.85-2.9,1.06,0,1.72.61,1.72,1.58,0,1.34-1.27,2.9-2.91,2.9ZM186.76,29.8c-1.03,0-1.8,1.15-1.8,1.9,0,.48.24.58.61.58,1.08,0,1.87-1.13,1.87-1.9,0-.36-.11-.58-.67-.58Z"/>
  </g>
  <g>
    <path class="cls-1" d="M200.97,41.42c0,.42-.06.9-.25,1.38l1.89-2.82c.75,0,2.01-.06,2.45-.12l-8.11,12.18c-2.77,4.14-4.46,6-4.46,7.26,0,.6.38.84.94.84,3.84,0,9.31-5.4,14.71-11.88.13-.18.38,0,.25.18-4.97,6-10.81,12-15.03,12-1.26,0-1.76-.78-1.76-1.8,0-1.86,1.51-4.32,3.02-6.6l.25-.36c-3.65,4.38-8.17,8.76-11.57,8.76-1.57,0-1.89-1.14-1.89-2.16,0-2.76,1.95-7.02,4.02-9.78,2.26-3.06,9.68-9.06,13.45-9.06,1.38,0,2.07.78,2.07,1.98ZM196.63,49.04l3.33-5.1c.38-.84.69-1.8.69-2.52,0-.96-.5-1.68-1.82-1.68-5.53,0-16.66,15.96-16.66,19.44,0,.66.44.96,1.13.96,4.15,0,10.37-7.14,13.33-11.1Z"/>
    <path class="cls-1" d="M193.36,60.94c-1.43,0-2.28-.86-2.28-2.3,0-.86.29-1.82.74-2.82-3.39,3.4-6.24,5.12-8.51,5.12-.9,0-2.41-.35-2.41-2.66,0-2.98,2.12-7.41,4.12-10.07,2.29-3.09,9.89-9.27,13.88-9.27,1.37,0,2.3.7,2.54,1.86l.88-1.32h.29c.75,0,1.97-.06,2.38-.12l1.13-.15-8.72,13.1c-.83,1.25-1.57,2.29-2.19,3.17-1.32,1.86-2.19,3.1-2.19,3.83,0,.21.02.34.42.34,3.06,0,7.74-3.82,14.3-11.69.19-.27.6-.35.91-.15.32.21.4.61.18.92-6.91,8.35-11.81,12.22-15.46,12.22ZM198.83,40.24c-5.27,0-16.14,15.81-16.14,18.94,0,.19,0,.46.61.46,3.52,0,9.14-5.86,12.89-10.88l3.32-5.09c.38-.85.61-1.7.61-2.25,0-.82-.4-1.18-1.3-1.18ZM195.09,51.81l.21.15-.25.36c-1.36,2.05-2.81,4.38-2.92,6.11.32-.86,1.07-1.93,2.2-3.51.62-.87,1.35-1.91,2.18-3.14l7.55-11.33c-.39.02-.81.03-1.16.04l-2.48,3.7-3.36,5.15c-.34.46-1.04,1.37-1.96,2.48ZM192.71,42.66c-2.84,1.93-5.62,4.47-6.84,6.13-1.78,2.37-3.67,6.18-3.9,8.94,1.27-3.61,6.1-10.8,10.75-15.07ZM208.57,48.54s-.02.02-.03.04c.01-.01.02-.02.03-.04Z"/>
  </g>
</svg>