<?xml version="1.0" encoding="UTF-8"?>
<svg id="Layer_1" data-name="Layer 1" xmlns="http://www.w3.org/2000/svg" viewBox="0 0 205.96 70.72">
  <defs>
    <style>
      .cls-1 {
        fill: red;
      }

      .cls-2 {
        fill: red;
      }
    </style>
  </defs>
  <g>
    <path class="cls-1" d="M49.66,47c1.09-6.9,9.19-8.46,19.09-8.94,6.7-9.72,11.56-17.64,16.09-22.74-8.81-3.24-6.7-14.52-22.47-14.52s-25.79,10.56-25.79,19.02c0,5.88,4.34,10.86,14.11,10.86,10.73,0,17.75-8.28,17.75-14.16,0-3.24-2.11-5.76-6.83-5.76-7.28,0-11.49,4.08-13.54,7.98l-.26-.18c1.92-3.72,6.19-8.1,13.85-8.1,5.17,0,7.72,3.06,7.72,6.78,0,6-6.45,13.74-18.71,13.74-9.96,0-14.43-5.16-14.43-11.16C36.25,11.12,45.83.5,62.37.5c17.81,0,16.28,11.46,22.86,14.46,3.58-3.9,7.02-6.12,11.24-6.12,2.17,0,3.26.9,3.26,2.04,0,2.1-3.7,5.22-10.22,5.22-1.47,0-2.75-.24-3.89-.54-3.89,4.74-8.3,12.36-14.3,22.44,3.7-.12,7.41-.24,10.53-.6,1.79-3.12,4.09-5.82,7.09-5.82,1.09,0,2.3.54,2.3,1.8,0,2.28-2.81,3.48-7.92,4.14l-1.09,2.28c-2.04,4.26-4.79,8.4-10.47,8.4v-.3c5.75,0,7.21-5.16,9.9-10.2-2.87.3-6.45.48-10.53.6-.19.24-.32.48-.45.72-11.11,18.42-22.98,31.2-47.31,31.2C7.27,70.22.5,61.76.5,53c0-10.56,9.7-21.96,25.22-21.96,11.62,0,16.79,6.18,16.79,12.72,0,7.56-6.77,15.6-18.45,15.6-6.58,0-9.51-3.36-9.51-7.32,0-4.74,4.28-10.02,11.43-10.02h.77l-.06.24h-.64c-6.96,0-11.17,5.16-11.17,9.72,0,3.72,2.68,7.02,8.75,7.02,10.09,0,17.56-8.76,17.56-16.44,0-5.94-4.47-11.22-15.64-11.22C10.27,31.34.82,42.68.82,53c0,8.7,6.83,16.92,22.54,16.92,23.05,0,34.54-16.08,45.2-31.5-9.51.48-17.37,1.8-18.64,8.58h-.26ZM83.43,37.22c4.41-.54,7.47-1.68,7.47-3.84,0-1.2-1.34-1.5-1.92-1.5-2.68,0-4.15,2.4-5.55,5.34ZM85.86,15.2c1.02.36,2.23.54,3.7.54,6.13,0,9.77-2.94,9.77-4.92,0-.96-1.02-1.68-2.81-1.68-4.02,0-7.21,1.98-10.66,6.06Z"/>
    <path class="cls-2" d="M23.36,70.72c-10.77,0-23.36-4.64-23.36-17.72,0-10.8,9.83-22.46,25.72-22.46,12.76,0,17.29,7.12,17.29,13.22,0,7.91-7.09,16.1-18.95,16.1-7.38,0-10.01-4.04-10.01-7.82,0-5.06,4.56-10.52,11.93-10.52h1.42l-.33,1.24h-1.02c-6.59,0-10.67,4.79-10.67,9.22,0,3.15,2.17,6.52,8.25,6.52,9.76,0,17.06-8.42,17.06-15.94,0-6.71-5.66-10.72-15.14-10.72-14.95,0-24.21,10.98-24.21,21.16,0,12.12,11.87,16.42,22.04,16.42,22.72,0,34.21-15.99,44.21-30.44-9.79.58-16.05,2.22-17.16,8.12l-.08.41h-1.25l.09-.58c1.16-7.39,9.94-8.88,19.31-9.35,1.89-2.75,3.64-5.35,5.27-7.79,3.82-5.7,7.15-10.66,10.25-14.26-3.16-1.39-4.92-3.86-6.62-6.25-2.79-3.92-5.67-7.97-15.02-7.97-10.6,0-25.29,6.44-25.29,18.52,0,7.64,7.03,10.36,13.61,10.36,10.53,0,17.25-8.09,17.25-13.66,0-3.34-2.31-5.26-6.33-5.26-7.88,0-11.58,4.83-13.09,7.71l-.26.5-1.08-.76.2-.39c1.3-2.52,5.28-8.37,14.3-8.37,5,0,8.22,2.86,8.22,7.28,0,6.85-7.34,14.24-19.21,14.24-11.01,0-14.93-6.02-14.93-11.66,0-4.64,2.63-9.61,7.03-13.31C47.79,2.31,54.75,0,62.37,0c12.08,0,15.55,5.28,18.34,9.53,1.34,2.04,2.51,3.83,4.41,4.82,3.88-4.15,7.39-6.01,11.35-6.01,2.77,0,3.76,1.37,3.76,2.54,0,2.34-3.82,5.72-10.72,5.72-1.51,0-2.8-.25-3.71-.48-3.43,4.24-7.35,10.85-12.29,19.16l-1.3,2.19c3.25-.11,6.54-.23,9.33-.54,2.3-3.94,4.72-5.85,7.39-5.85,1.35,0,2.8.72,2.8,2.3,0,3.08-4.26,4.09-8.08,4.6l-.97,2.03c-2.06,4.3-4.97,8.69-10.92,8.69h-.5v-1.3h.5c4.53,0,6.25-3.5,8.25-7.56.25-.51.51-1.03.78-1.56-2.45.22-5.48.39-9.41.51-.1.14-.18.29-.26.45-11.73,19.45-23.8,31.48-47.76,31.48ZM69.55,37.87l-.58.83c-7.7,11.14-16.18,23.4-29.91,28.84,13.74-4.24,22.55-14.48,31.18-28.78.13-.24.27-.5.48-.77l.15-.24,1.77-2.97c3.48-5.86,6.46-10.88,9.13-14.83-2.22,2.99-4.59,6.52-7.19,10.4-1.58,2.36-3.27,4.88-5.09,7.53h.06ZM41.38,40.04c.24,1.03.29,1.92.29,2.52,0,5.62-3.81,11.71-9.67,14.83,6.38-2.58,10.01-8.17,10.01-13.63,0-1.22-.2-2.48-.63-3.72ZM82.12,37.87l-.03.06c-.42.79-.81,1.58-1.19,2.35-.84,1.71-1.67,3.39-2.71,4.77,1.49-1.48,2.6-3.44,3.58-5.47l.84-1.76h-.02s.39-.82.39-.82c.31-.64.63-1.29.97-1.89-.56.72-1.13,1.56-1.68,2.54l-.15.22ZM88.99,32.38c-2.04,0-3.33,1.53-4.69,4.22,2.97-.45,6.11-1.36,6.11-3.22,0-.96-1.4-1-1.42-1ZM68.89,17.34c-.34,3.29-2.64,7.2-6.45,10.02,4.31-2.76,6.4-6.83,6.45-10.02ZM86.74,14.94c.82.2,1.75.3,2.82.3,6.09,0,9.27-2.88,9.27-4.42,0-.71-.93-1.18-2.31-1.18-3.54,0-6.5,1.59-9.78,5.3ZM73.48,3.38c2.02,1.52,3.38,3.44,4.72,5.32,1.22,1.72,2.4,3.37,4.05,4.64-.88-.96-1.62-2.09-2.38-3.25-1.55-2.37-3.23-4.91-6.39-6.7Z"/>
  </g>
  <g>
    <path class="cls-1" d="M76.54,55.4c-3.51,3.96-7.02,7.14-9.83,9.3l-.19-.24c4.72-3.72,7.6-6.72,11.36-11.04,4.41-5.7,11.68-9.42,13.92-9.42,1.02,0,1.4.48,1.4,1.02,0,2.7-7.21,8.1-13.98,10.26-2.11,3.06-3.64,6.06-3.64,7.74,0,.9.64,1.68,2.23,1.68,5.11,0,11.04-4.92,16.85-11.88.13-.18.45,0,.19.24-4.92,5.94-11.36,11.94-16.98,11.94-2.81,0-3.32-1.74-3.32-2.88,0-2.4.77-4.68,1.98-6.72ZM79.54,54.86c7.02-2.34,13.34-7.62,13.34-9.84,0-.3-.19-.72-.96-.72-3.19,0-8.68,5.4-12.39,10.56Z"/>
    <path class="cls-2" d="M77.88,65.5c-3.54,0-3.82-2.59-3.82-3.38,0-1.35.23-2.7.68-4.03-2.54,2.65-5.22,5.08-7.73,7.01l-.39.3-.81-1.02.4-.31c4.66-3.67,7.46-6.57,11.3-10.98,4.52-5.85,11.93-9.59,14.29-9.59,1.4,0,1.9.79,1.9,1.52,0,2.97-7.25,8.43-14.17,10.68-2.17,3.17-3.46,5.9-3.46,7.32,0,1.03,1.09,1.18,1.73,1.18,4.45,0,9.99-3.94,16.47-11.7.13-.18.38-.28.63-.24.25.04.44.21.52.44.08.25,0,.52-.23.73-4.53,5.48-11.26,12.08-17.33,12.08ZM76.73,55.48l.24.18c-1.27,2.13-1.91,4.31-1.91,6.46,0,.17.01.35.04.52.21-2.04,1.98-5.03,3.16-6.83h-.03s.25-.35.25-.35c.12-.17.22-.33.32-.47l.33-.43c1.93-2.69,4.35-5.48,6.73-7.54-2.56,1.59-5.4,3.87-7.59,6.7-.53.61-1.05,1.19-1.55,1.75ZM91.93,44.8c-2.69,0-7.44,4.43-10.98,9.01,6.25-2.5,11.44-7.04,11.44-8.79,0-.15-.15-.22-.46-.22ZM95.08,53.11s-.02.02-.03.04c.01-.01.02-.02.03-.04Z"/>
  </g>
  <g>
    <path class="cls-1" d="M110.25,45.98c0,.42-.06.9-.26,1.38l18.39-27.18c.57,0,1.92-.06,2.43-.12l-25.54,37.86c-1.53,2.28-3.64,4.92-3.64,5.94,0,.54.38.84.89.84,4.02,0,9.51-5.4,15-11.88.13-.18.38,0,.26.18-5.04,6-10.92,12-15.32,12-1.21,0-1.72-.78-1.72-1.8,0-1.8,1.53-4.32,3.06-6.6l.13-.24c-3.7,4.38-8.17,8.64-11.62,8.64-1.6,0-1.92-1.14-1.92-2.16,0-2.76,1.98-7.02,4.09-9.78,2.3-3.06,9.83-9.06,13.66-9.06,1.4,0,2.11.78,2.11,1.98ZM105.91,53.42l3.32-4.92c.38-.84.7-1.8.7-2.58,0-.9-.51-1.62-1.85-1.62-5.62,0-16.92,15.96-16.92,19.44,0,.66.45.96,1.15.96,4.28,0,10.66-7.32,13.6-11.28Z"/>
    <path class="cls-2" d="M102.46,65.5c-1.37,0-2.22-.88-2.22-2.3,0-.88.32-1.89.82-2.95-3.49,3.49-6.42,5.25-8.74,5.25-.9,0-2.42-.35-2.42-2.66,0-2.99,2.16-7.42,4.19-10.08,2.32-3.09,10.03-9.26,14.06-9.26,1.4,0,2.34.72,2.56,1.92l17.42-25.74h.27c.57,0,1.89-.06,2.37-.12l1.08-.13-26.15,38.76c-.38.57-.81,1.17-1.22,1.75-1.04,1.47-2.33,3.3-2.33,3.91,0,.09,0,.34.39.34,4.22,0,10.37-6.68,14.62-11.7.19-.27.59-.34.9-.13.3.21.37.62.15.92-4.42,5.26-10.83,12.21-15.73,12.21ZM108.08,44.8c-5.36,0-16.42,15.81-16.42,18.94,0,.17,0,.46.65.46,3.93,0,10.14-6.95,13.19-11.07l3.31-4.91c.38-.86.62-1.7.62-2.3,0-.75-.44-1.12-1.35-1.12ZM105.01,55.39l-.77,1.45c-1.5,2.24-3.01,4.7-3.01,6.37,0,.03,0,.06,0,.08.29-.88,1.15-2.13,2.41-3.9.41-.58.83-1.17,1.21-1.74l24.96-37.01c-.41.02-.84.04-1.17.04l-22.34,33.04c-.18.24-.64.85-1.3,1.67ZM101.95,47.15c-2.92,1.94-5.81,4.53-7.07,6.21-1.86,2.44-3.83,6.4-3.98,9.16,1.15-3.54,6.21-11.01,11.04-15.37ZM117.94,53.11s-.02.02-.03.04c.01-.01.02-.02.03-.04Z"/>
  </g>
  <g>
    <path class="cls-1" d="M131,44c1.02,0,1.4.48,1.4,1.02,0,2.7-7.21,8.1-13.98,10.26-2.11,3.06-3.64,6.06-3.64,7.74,0,.9.64,1.68,2.23,1.68,5.11,0,11.04-4.92,16.85-11.88.13-.18.45,0,.19.24-4.92,5.94-11.36,11.94-16.98,11.94-2.81,0-3.32-1.74-3.32-2.88,0-10.32,14.05-18.12,17.24-18.12ZM118.74,54.86c7.02-2.34,13.34-7.62,13.34-9.84,0-.3-.19-.72-.96-.72-3.19,0-8.68,5.4-12.39,10.56Z"/>
    <path class="cls-2" d="M117.08,65.5c-3.54,0-3.82-2.59-3.82-3.38,0-10.48,14.15-18.62,17.74-18.62,1.4,0,1.9.79,1.9,1.52,0,2.97-7.25,8.43-14.17,10.68-2.17,3.17-3.46,5.9-3.46,7.32,0,1.03,1.09,1.18,1.73,1.18,4.45,0,9.99-3.94,16.47-11.7.13-.18.38-.28.63-.24.25.04.44.21.52.44.08.25,0,.52-.23.73-4.53,5.48-11.26,12.07-17.32,12.07ZM124.9,47.17c-4.85,3.05-10.64,8.47-10.64,14.95,0,.17.01.35.04.52.21-2.04,1.98-5.03,3.16-6.83h-.03s.27-.37.27-.37c.11-.16.21-.31.3-.45l.32-.43c1.88-2.62,4.24-5.35,6.56-7.4ZM131.13,44.8c-2.69,0-7.44,4.43-10.98,9.01,6.25-2.5,11.44-7.04,11.44-8.79,0-.15-.15-.22-.46-.22ZM134.28,53.11s-.02.02-.03.04c.01-.01.02-.02.03-.04Z"/>
  </g>
  <g>
    <path class="cls-1" d="M133.68,63.08c0-2.64,2.49-5.52,4.53-8.28,3.06-4.14,4.28-5.82,4.28-7.38,0-1.02-.89-1.92-1.6-2.82-1.79,2.46-4.92,6.24-7.28,9-.13.12-.45.06-.26-.18,2.3-2.7,5.49-6.54,7.34-9.12-.19-.36-.38-.72-.38-1.14,0-1.86,1.47-2.88,2.36-2.88.38,0,.64.18.64.54,0,.9-1.53,2.64-2.23,3.54l.96,1.26c.83,1.08,1.34,1.98,1.34,3.18,0,1.26-.38,3.12-4.15,8.1-1.66,2.22-4.66,5.76-4.66,6.96,0,.42.26.84,1.02.84,3.77,0,9.45-5.4,14.94-11.88.13-.18.38,0,.26.18-5.04,6-10.98,12-15.2,12-.7,0-1.92-.36-1.92-1.92Z"/>
    <path class="cls-2" d="M135.6,65.5c-1.2,0-2.42-.75-2.42-2.42,0-2.45,1.93-5,3.8-7.47.28-.37.56-.74.83-1.11,3.11-4.2,4.18-5.72,4.18-7.08,0-.66-.54-1.34-1.08-2-2.27,3.05-5.83,7.24-6.92,8.51-.3.29-.75.3-1,.06-.2-.19-.29-.54-.02-.88,1.85-2.17,5.16-6.13,7.15-8.85-.16-.32-.3-.68-.3-1.1,0-2.09,1.67-3.38,2.86-3.38.68,0,1.14.42,1.14,1.04,0,.87-.89,2.05-1.97,3.39l-.13.16.72.95c.89,1.16,1.44,2.15,1.44,3.48,0,1.44-.52,3.46-4.25,8.4-.35.47-.76,1-1.19,1.55-1.34,1.73-3.37,4.33-3.37,5.11,0,.11,0,.34.52.34,2.12,0,6.36-2.03,14.56-11.7.19-.27.59-.34.89-.13.3.21.37.62.15.92-6.91,8.23-12.01,12.21-15.6,12.21ZM142.86,48.38c-.41,1.53-1.77,3.38-4.24,6.72-.27.37-.56.74-.84,1.12-1.77,2.33-3.59,4.75-3.59,6.87,0,.07,0,.13,0,.19.38-1.11,1.66-2.81,3.46-5.13.43-.55.83-1.07,1.18-1.54,3.56-4.71,4.05-6.53,4.05-7.8,0-.14,0-.28-.02-.42ZM150.95,53.11s-.02.02-.03.04c.01-.01.02-.02.03-.04ZM142.69,40.78c-.65,0-1.86.82-1.86,2.38,0,.18.06.36.14.55l.1-.13c.61-.76,1.75-2.18,1.75-2.76.01-.01-.03-.04-.14-.04Z"/>
  </g>
  <g>
    <path class="cls-1" d="M145.69,63.2c0-1.86,1.53-4.32,3.06-6.6l3.89-5.82c-.89,1.14-1.79,2.16-2.36,2.82-.13.12-.45.06-.26-.18,1.92-2.28,3.96-4.8,5.81-7.32l1.02-1.56c.77,0,2.04-.06,2.49-.12l-9.13,13.5c-1.6,2.34-3.64,4.98-3.64,5.94,0,.6.38.84.96.84,3.89,0,9.45-5.4,14.94-11.88.13-.18.38,0,.26.18-5.04,6-10.98,12-15.26,12-1.28,0-1.79-.78-1.79-1.8ZM164.84,34.94c0,1.02-1.02,2.4-2.43,2.4-.83,0-1.15-.48-1.15-1.08,0-1.02,1.02-2.4,2.36-2.4.89,0,1.21.48,1.21,1.08Z"/>
    <path class="cls-2" d="M147.47,65.5c-1.43,0-2.29-.86-2.29-2.3,0-2.02,1.63-4.61,3.15-6.88l1.49-2.22c-.06-.03-.12-.06-.16-.11-.2-.19-.29-.54-.02-.88,2.32-2.76,4.21-5.14,5.8-7.3l1.15-1.76h.27c.76,0,2-.06,2.42-.12l1.11-.15-9.76,14.42c-.35.51-.71,1.03-1.07,1.54-1.11,1.57-2.48,3.53-2.48,4.12,0,.17,0,.34.46.34,3.12,0,7.89-3.83,14.56-11.7.19-.27.59-.34.9-.13.3.21.37.62.15.92-6.91,8.23-12.03,12.21-15.67,12.21ZM152.79,50.86l.27.2-3.9,5.82c-1.44,2.15-2.98,4.58-2.98,6.32,0,.03,0,.06,0,.09.3-.9,1.22-2.23,2.56-4.13.36-.51.72-1.02,1.06-1.53l8.55-12.64c-.41.02-.86.04-1.23.04l-.87,1.34c-1.03,1.4-2.17,2.88-3.47,4.49ZM162.88,53.11s-.02.02-.03.04c.01-.01.02-.02.03-.04ZM162.41,37.84c-1.02,0-1.65-.61-1.65-1.58,0-1.31,1.28-2.9,2.86-2.9,1.06,0,1.71.61,1.71,1.58,0,1.34-1.28,2.9-2.93,2.9ZM163.63,34.36c-1.06,0-1.86,1.15-1.86,1.9,0,.41.19.58.65.58,1.12,0,1.93-1.13,1.93-1.9,0-.28-.06-.58-.71-.58Z"/>
  </g>
  <g>
    <path class="cls-1" d="M176.4,44.3c-5.68,0-16.73,14.58-16.73,18.6,0,1.26.89,1.8,2.36,1.8,5.04,0,11.75-4.92,17.56-11.88.13-.18.45,0,.19.24-4.92,5.94-12.13,11.94-17.75,11.94-2.87,0-3.26-1.62-3.26-3,0-5.04,3.7-10.2,8.49-13.68,3.32-2.4,6.64-4.32,9.13-4.32,1.4,0,1.92.84,1.92,1.92,0,1.2-.77,2.76-2.17,2.76-.64,0-.96-.36-.96-.84,0-1.56,2.81-1.68,2.81-2.1-.06-.84-.38-1.44-1.6-1.44Z"/>
    <path class="cls-2" d="M162.03,65.5c-2.53,0-3.76-1.15-3.76-3.5,0-4.79,3.33-10.18,8.7-14.08,4.17-3.01,7.16-4.42,9.42-4.42,1.51,0,2.42.9,2.42,2.42s-1.02,3.26-2.67,3.26c-.87,0-1.46-.54-1.46-1.34,0-1.39,1.5-1.88,2.39-2.18.12-.04.28-.09.39-.14-.08-.48-.31-.72-1.07-.72-5.2,0-16.23,14.18-16.23,18.1,0,.61.21,1.3,1.86,1.3,4.57,0,11.15-4.48,17.17-11.7.13-.18.38-.28.63-.24.25.04.44.21.52.44.08.25,0,.52-.23.73-4.81,5.81-12.12,12.08-18.09,12.08ZM170.43,46.79c-.89.54-1.85,1.19-2.87,1.93-5.11,3.71-8.28,8.8-8.28,13.27v.04c.81-3.67,6.14-11.09,11.16-15.25ZM180,53.11s-.02.02-.03.04c.01-.01.02-.02.03-.04ZM177.75,46.48c-.11.04-.23.08-.36.12-.9.3-1.71.62-1.71,1.23,0,.1,0,.34.46.34.88,0,1.43-.86,1.61-1.69Z"/>
  </g>
  <g>
    <path class="cls-1" d="M192.61,44c1.6,0,2.3.9,2.3,2.22,0,.72-.19,1.5-.45,2.4.45.18,1.08.3,1.85.3,1.21,0,4.85,0,8.68-5.16l.26.18c-3.83,5.16-7.47,5.28-9,5.28-.64,0-1.34-.12-1.85-.3-2.04,6.3-9.83,16.08-15.71,16.08-2.04,0-2.94-1.2-2.94-3.24,0-2.58,1.47-5.94,3.58-8.7,1.92-2.52,9.51-9.06,13.28-9.06ZM176.78,63.14c0,1.02.77,1.56,1.98,1.56,5.62,0,13.47-9.78,15.32-15.96-.83-.36-1.21-1.08-1.21-1.8,0-.78.45-1.56,1.47-1.8-.32-.66-.89-.84-1.66-.84-4.79,0-15.9,14.34-15.9,18.84Z"/>
    <path class="cls-2" d="M178.7,65.5c-2.22,0-3.44-1.33-3.44-3.74,0-2.58,1.41-6.03,3.68-9,2.03-2.67,9.68-9.26,13.68-9.26,1.75,0,2.8,1.02,2.8,2.72,0,.67-.15,1.38-.34,2.07.36.09.79.13,1.24.13,1.14,0,4.6,0,8.28-4.96l.29-.39,1.07.76-.31.41c-3.65,4.91-7.11,5.48-9.4,5.48-.5,0-1.05-.07-1.53-.19-2.31,6.46-9.98,15.96-16.02,15.96ZM192.68,44.8c-4.4,0-15.4,14-15.4,18.34,0,.88.8,1.06,1.48,1.06,5.3,0,12.75-9.31,14.72-15.22-.7-.45-1.11-1.19-1.11-2.04s.42-1.59,1.13-2c-.18-.09-.44-.14-.82-.14ZM187.07,46.92c-3.06,2.06-6.17,4.91-7.34,6.44-2.14,2.81-3.47,6.02-3.47,8.4,0,.3.02.58.06.83.52-3.74,5.9-11.37,10.75-15.67ZM194.35,45.65c-.91.27-.99,1.05-.99,1.29,0,.52.25.96.7,1.23.21-.78.34-1.4.34-1.95,0-.21-.02-.4-.06-.57Z"/>
  </g>
</svg>